<svg version="1" xmlns="http://www.w3.org/2000/svg" width="682.667" height="682.667" viewBox="0 0 512.000000 512.000000"><path d="M119.5 1.4c-7.2 3.2-9.5 9.1-10.2 26-.4 9.5-.1 15 1 20.1.8 3.8 1.3 7.2 1.1 7.4-.6.7-8.5-3.2-14.7-7.2C88.5 42.4 80.9 35 76 27.5c-4.7-7.2-8.4-9.5-15.3-9.5-4.9 0-9.6 2.6-13.1 7.3-4.1 5.5-3.3 33.1 1.5 51.2 2.6 10 9 24 11.7 25.4 5.2 2.8 11.2-.3 11.2-5.8 0-1.5-1.3-5.8-3-9.3-1.6-3.6-3.8-10.1-5-14.4-2.5-9.8-4.5-28.7-3.6-34.8l.7-4.7 4.9 6.9c10.4 14.8 28.2 27 48.9 33.2 5.6 1.7 7.8 3.1 12.7 7.9 12.9 12.5 27.8 18.1 57.6 21.6l4.7.6-3.4 5.7c-3.8 6.5-9.9 21.1-11 26.1l-.7 3.4-12.5-.7c-28.5-1.5-52.5-9.1-70.3-22.2-7.1-5.2-10.9-6-14-2.8-1 1-2.2 3.2-2.6 4.7-.6 2.6 0 3.5 4.8 8 9.6 9.1 27.8 18 46.5 22.7 8.5 2.2 24.1 4.6 36.3 5.5l8.5.6-.3 28.9-.3 28.9-8.5 4.6c-4.6 2.6-11.9 7.3-16.2 10.5-8.5 6.4-24.2 22.2-31.4 31.6-18.8 24.5-37.2 61.5-49.9 99.9-7.1 21.6-2.6 35.6 14 43.4l5.6 2.6h30c31.4-.1 46.5-1.3 67.5-5.6 5.2-1.1 10.6-2.2 12-2.4 2.1-.4 3.2.4 7 5.2 5.2 6.5 16.6 16.5 25.1 22l5.9 3.8-.2 18-.3 18-5.8 2.8c-12.1 5.7-19.6 16.6-20.5 29.4-.5 8.2.7 11 6.1 14.3 3.1 1.9 5.7 2 90.5 2 96.4 0 91.2.3 95.2-6.3 3.9-6.3 1.9-17.9-4.5-27.3-6.9-10-18.4-15.4-32.7-15.4-6.4 0-6.9-.2-7.8-2.6-.6-1.4-1-8.5-1-15.9v-13.3l10.1-6.7c5.6-3.7 14.4-10.9 19.8-15.9 5.3-5.1 11.2-9.8 13.1-10.6 15.4-5.9 34.1-18 45.1-29.2 26-26.6 35.1-69.4 22-103.4-6.7-17.3-20.9-33.3-37.2-41.9l-5.7-2.9-.5-34.1c-.4-29.6-.7-35.1-2.5-42.5-11.7-48.9-47.8-84.8-95.7-95.1-6.8-1.5-15.9-2.2-36.5-2.9-15.1-.5-34-1.6-42-2.5-30.7-3.4-58.8-10.7-77.4-20.1-10.5-5.3-12.7-6.8-22.1-15-3.9-3.3-8-6.6-9.2-7.3-2.9-1.5-9.1-1.3-12.8.3zM143.9 30c14.9 10.1 38.3 18.9 63.8 24 21.1 4.2 38.5 5.9 73.8 7.5 33 1.4 38.6 2.3 53 8 34.3 13.7 59 44 66 80.8 2.3 12 2.2 178.6-.1 190.7-4.1 22-14.7 41.3-31.2 57.2-17.4 16.7-37.4 26.5-60.6 29.7-33 4.6-68.8-7.7-91.9-31.6l-4.7-4.9 9.7-4c11-4.4 26.7-13.4 33.1-18.9 4.9-4.3 5.6-8.4 2-12.2-3.4-3.6-6.8-2.9-16 3.4-29.4 20.1-70.5 29.6-127.8 29.6-27.5-.1-30.4-.6-34-6.5-3.1-5.2-2.5-10.2 3.4-27 15.7-44.9 34.7-78.7 57.5-102.1 15-15.4 28-24 45.1-29.8 12.3-4.1 29.3-5.1 41.4-2.5 8.9 2 21.1 7.9 27.6 13.2 15 12.5 23.9 31.5 24 51.1 0 15.6-4.5 34.5-11.1 45.9-3.6 6.3-3.7 9.7-.4 12.9 5.4 5.5 10.3 2.4 16.3-10.2 10.6-22.5 13.6-47.5 8.2-68.9-10.7-42.2-52.2-67.9-96.5-59.9-4.4.8-8.2 1.5-8.4 1.5-.2 0-.1-12 .2-26.8.4-22.8.8-27.9 2.6-34.9 3.1-12.4 7.4-22.8 13.6-32.8 5.9-9.7 6.7-13.3 4-18.6-2.6-4.9-7-6.9-15-6.9-3.8 0-11.3-.7-16.5-1.5-26.2-3.9-41.9-15.3-48.2-34.8-2.2-6.7-3-24.6-1.5-32l.8-3.9 5.7 5.4c3.1 3 8.6 7.4 12.1 9.8zm288.2 219c12.8 12.7 19.3 28.6 19.2 47.5 0 32.7-12 55.7-38.7 74.4-3.3 2.2-6.1 3.9-6.3 3.7-.2-.2 1-3.8 2.7-8 8-20 9-29.1 9-83.9v-44.8l3.2 1.8c1.8 1 6.7 5.2 10.9 9.3zM255.5 438.3c2.8.9 6.9 2.1 9.3 2.7l4.2 1.1v10.2c0 9.1.3 10.9 2.6 15.5 1.9 3.9 3.8 5.9 7.2 8 4.4 2.5 5.6 2.7 19.7 3.2 12.7.4 15.5.8 18.5 2.5 3.9 2.3 8.5 8.5 9.4 12.7l.6 2.8h-53.5c-36.1 0-53.5-.3-53.5-1 0-2.1 3.2-8.5 5.3-10.8 1.2-1.4 4.9-3.7 8.1-5.3 12.7-6.2 14.5-10 14.6-29.8 0-11 .3-14.2 1.3-13.9.6.3 3.5 1.2 6.2 2.1zm80.5 12.4c0 14.5 1.3 18.9 6.9 23.6 4.1 3.4 8.9 4.7 18 4.7 9.8 0 15.2 2.5 19.2 8.8 1.6 2.5 2.9 5.6 2.9 6.9v2.3l-20.2-.2-20.2-.3-.8-4.5c-1.9-11-10.5-21.6-21.3-26.1l-5.5-2.3V443.3l9.3-2.5c5-1.4 9.8-2.6 10.5-2.7.9-.1 1.2 3.1 1.2 12.6zm-37 2.8v9.6l-6.7-.3-6.8-.3-.3-9.3-.3-9.2H299v9.5z"/><path d="M272.1 132.1c-4.3 1.7-5 3.7-5.1 14.7 0 9.6.2 10.5 2.5 12.7 3 3 6.4 3.2 9.9.4 2.5-2 2.6-2.3 2.6-13.3 0-9.5-.3-11.5-1.7-12.8-2.5-2.2-5.4-2.8-8.2-1.7zM376.4 132c-4.3 1.7-5.4 4.8-5.4 15.3 0 9.1.2 10 2.5 12.2 3.1 3.2 6.6 3.2 10.2.1 2.7-2.4 2.8-2.7 2.8-13 0-9.2-.2-10.8-2-12.5-2.6-2.4-5.4-3.2-8.1-2.1zM325 142.1c-14.7 1.8-27.6 11.5-34.3 25.7l-3.2 6.7v38l3.2 6.8c4.4 9.2 13 17.8 22 21.9 17.3 7.9 39.8 3 51.5-11.3 4.5-5.4 8.4-13 9.7-18.9 1.6-7.1 1.3-29.6-.5-36.5-5.5-21.4-26.2-35.2-48.4-32.4zm18.8 18.3c2.7 1.4 6.3 4.1 8 6 5.9 6.8 6.6 9 7 23l.4 13-3.7-2.8c-6-4.6-12.6-6.5-25.8-7.6-12.5-1-21.4-3-25.5-5.6-1.9-1.3-2.2-2-1.6-5.2 1.8-9.7 10.4-19.8 19.3-22.7 6.4-2.1 15.7-1.2 21.9 1.9zM316 206.6c4.1.7 10.2 1.3 13.5 1.4 8.9 0 13.4 1.6 18.2 6.5 2.4 2.3 4.3 4.7 4.3 5.2s-1.9 2.3-4.2 4c-14.7 10.5-34.4 5.8-42.2-9.9-1.4-2.9-2.6-6.3-2.6-7.6 0-2.1.3-2.3 2.8-1.7 1.5.4 6.1 1.3 10.2 2.1z"/></svg>